<svg width="20" height="20" viewBox="0 0 20 20" fill="none" xmlns="http://www.w3.org/2000/svg">
<path d="M15.0013 1.66602C14.2513 1.66602 13.3346 2.49935 13.3346 3.33268H6.66797C6.66797 2.49935 5.7513 1.66602 5.0013 1.66602H1.66797V9.16602C1.66797 9.99935 2.5013 10.8327 3.33464 10.8327H5.16797C5.5013 12.4993 6.58464 13.916 9.16797 14.166V15.8993C6.66797 16.2827 6.66797 18.3327 6.66797 18.3327H13.3346C13.3346 18.3327 13.3346 16.2827 10.8346 15.8993V14.166C13.418 13.916 14.5013 12.4993 14.8346 10.8327H16.668C17.5013 10.8327 18.3346 9.99935 18.3346 9.16602V1.66602H15.0013ZM5.0013 9.16602H3.33464V3.33268H5.0013V9.16602ZM13.3346 9.58268C13.3346 11.191 12.8513 12.4993 10.0013 12.4993C7.15964 12.4993 6.66797 11.191 6.66797 9.58268V4.99935H13.3346V9.58268ZM16.668 9.16602H15.0013V3.33268H16.668V9.16602Z" fill="#525252"/>
</svg>
