<svg width="21" height="21" viewBox="0 0 21 21" fill="none" xmlns="http://www.w3.org/2000/svg">
<path d="M6.5625 5.90625H9.1875M6.5625 10.5H14.4375M6.5625 13.125H14.4375M6.5625 15.75H9.1875M5.25 19.0312H15.75C16.0981 19.0312 16.4319 18.893 16.6781 18.6468C16.9242 18.4007 17.0625 18.0668 17.0625 17.7188V3.28125C17.0625 2.93315 16.9242 2.59931 16.6781 2.35317C16.4319 2.10703 16.0981 1.96875 15.75 1.96875H5.25C4.9019 1.96875 4.56806 2.10703 4.32192 2.35317C4.07578 2.59931 3.9375 2.93315 3.9375 3.28125V17.7188C3.9375 18.0668 4.07578 18.4007 4.32192 18.6468C4.56806 18.893 4.9019 19.0312 5.25 19.0312Z" stroke="#525252" stroke-width="1.5" stroke-linecap="round" stroke-linejoin="round"/>
<path d="M14.4375 6.23438C14.6187 6.23438 14.7656 6.08747 14.7656 5.90625C14.7656 5.72503 14.6187 5.57812 14.4375 5.57812C14.2563 5.57812 14.1094 5.72503 14.1094 5.90625C14.1094 6.08747 14.2563 6.23438 14.4375 6.23438Z" fill="#525252" stroke="#525252" stroke-width="0.5"/>
</svg>
