<svg width="20" height="20" viewBox="0 0 20 20" fill="none" xmlns="http://www.w3.org/2000/svg">
<path d="M4.16667 18.3327C3.70833 18.3327 3.31611 18.1696 2.99 17.8435C2.66389 17.5174 2.50056 17.1249 2.5 16.666V4.99935C2.5 4.54102 2.66333 4.1488 2.99 3.82269C3.31667 3.49657 3.70889 3.33324 4.16667 3.33269H5V2.49935C5 2.26324 5.08 2.06546 5.24 1.90602C5.4 1.74657 5.59778 1.66657 5.83333 1.66602C6.06889 1.66546 6.26694 1.74546 6.4275 1.90602C6.58806 2.06657 6.66778 2.26435 6.66667 2.49935V3.33269H13.3333V2.49935C13.3333 2.26324 13.4133 2.06546 13.5733 1.90602C13.7333 1.74657 13.9311 1.66657 14.1667 1.66602C14.4022 1.66546 14.6003 1.74546 14.7608 1.90602C14.9214 2.06657 15.0011 2.26435 15 2.49935V3.33269H15.8333C16.2917 3.33269 16.6842 3.49602 17.0108 3.82269C17.3375 4.14935 17.5006 4.54157 17.5 4.99935V16.666C17.5 17.1244 17.3369 17.5169 17.0108 17.8435C16.6847 18.1702 16.2922 18.3332 15.8333 18.3327H4.16667ZM4.16667 16.666H15.8333V8.33269H4.16667V16.666ZM4.16667 6.66602H15.8333V4.99935H4.16667V6.66602ZM6.66667 11.666C6.43056 11.666 6.23278 11.586 6.07333 11.426C5.91389 11.266 5.83389 11.0682 5.83333 10.8327C5.83278 10.5971 5.91278 10.3994 6.07333 10.2394C6.23389 10.0794 6.43167 9.99935 6.66667 9.99935H13.3333C13.5694 9.99935 13.7675 10.0794 13.9275 10.2394C14.0875 10.3994 14.1672 10.5971 14.1667 10.8327C14.1661 11.0682 14.0861 11.2663 13.9267 11.4269C13.7672 11.5874 13.5694 11.6671 13.3333 11.666H6.66667ZM6.66667 14.9994C6.43056 14.9994 6.23278 14.9194 6.07333 14.7594C5.91389 14.5994 5.83389 14.4016 5.83333 14.166C5.83278 13.9305 5.91278 13.7327 6.07333 13.5727C6.23389 13.4127 6.43167 13.3327 6.66667 13.3327H10.8333C11.0694 13.3327 11.2675 13.4127 11.4275 13.5727C11.5875 13.7327 11.6672 13.9305 11.6667 14.166C11.6661 14.4016 11.5861 14.5996 11.4267 14.7602C11.2672 14.9207 11.0694 15.0005 10.8333 14.9994H6.66667Z" fill="#525252"/>
</svg>
