<svg width="20" height="20" viewBox="0 0 20 20" fill="none" xmlns="http://www.w3.org/2000/svg">
<path d="M7.5 10.625H12.5C13.1875 10.625 13.75 10.0625 13.75 9.375V2.5C13.75 1.8125 13.1875 1.25 12.5 1.25H7.5C6.8125 1.25 6.25 1.8125 6.25 2.5V9.375C6.25 10.0625 6.8125 10.625 7.5 10.625ZM7.5 2.5H12.5V9.375H7.5V2.5ZM5 11.875H8.75V13.125H5C4.3125 13.125 3.75 12.5625 3.75 11.875V5H5V11.875ZM2.5 14.375H6.25V15.625H2.5C1.8125 15.625 1.25 15.0625 1.25 14.375V7.5H2.5V14.375ZM18.75 15L15 18.75L14.125 17.875L16.375 15.625H10.625V14.375H16.375L14.125 12.125L15 11.25L18.75 15Z" fill="#525252"/>
</svg>
