<svg width="20" height="20" viewBox="0 0 20 20" fill="none" xmlns="http://www.w3.org/2000/svg">
<path d="M3.33464 15.8333H6.66797V9.16667H3.33464V15.8333ZM8.33463 15.8333H11.668V4.16667H8.33463V15.8333ZM13.3346 15.8333H16.668V10.8333H13.3346V15.8333ZM1.66797 15.8333V9.16667C1.66797 8.70833 1.8313 8.31611 2.15797 7.99C2.48464 7.66389 2.87686 7.50056 3.33464 7.5H6.66797V4.16667C6.66797 3.70833 6.8313 3.31611 7.15797 2.99C7.48463 2.66389 7.87686 2.50056 8.33463 2.5H11.668C12.1263 2.5 12.5188 2.66333 12.8455 2.99C13.1721 3.31667 13.3352 3.70889 13.3346 4.16667V9.16667H16.668C17.1263 9.16667 17.5188 9.33 17.8455 9.65667C18.1721 9.98333 18.3352 10.3756 18.3346 10.8333V15.8333C18.3346 16.2917 18.1716 16.6842 17.8455 17.0108C17.5194 17.3375 17.1269 17.5006 16.668 17.5H3.33464C2.8763 17.5 2.48408 17.3369 2.15797 17.0108C1.83186 16.6847 1.66852 16.2922 1.66797 15.8333Z" fill="#525252"/>
</svg>
