<svg width="36" height="36" viewBox="0 0 36 36" fill="none" xmlns="http://www.w3.org/2000/svg">
<g clip-path="url(#clip0_40000690_1228)">
<g filter="url(#filter0_f_40000690_1228)">
<rect x="0.5" y="0.5" width="21" height="21" rx="10.5" stroke="url(#paint0_linear_40000690_1228)"/>
</g>
<mask id="mask0_40000690_1228" style="mask-type:alpha" maskUnits="userSpaceOnUse" x="9" y="9" width="18" height="18">
<path d="M17.9831 9.25C17.7 13.9438 13.9438 17.7 9.25 17.9831V18.0169C13.9438 18.3 17.7 22.0562 17.9831 26.75H18.0169C18.3 22.0562 22.0562 18.3 26.75 18.0169V17.9831C22.0562 17.7 18.3 13.9438 18.0169 9.25H17.9831Z" fill="url(#paint1_linear_40000690_1228)"/>
</mask>
<g mask="url(#mask0_40000690_1228)">
<path d="M18 8C23.519 8 28 12.481 28 18C28 23.519 23.519 28 18 28C12.481 28 8 23.519 8 18C8 12.481 12.481 8 18 8Z" fill="url(#paint2_linear_40000690_1228)"/>
</g>
</g>
<rect x="0.5" y="0.5" width="35" height="35" rx="17.5" stroke="url(#paint3_linear_40000690_1228)"/>
<defs>
<filter id="filter0_f_40000690_1228" x="-21" y="-21" width="64" height="64" filterUnits="userSpaceOnUse" color-interpolation-filters="sRGB">
<feFlood flood-opacity="0" result="BackgroundImageFix"/>
<feBlend mode="normal" in="SourceGraphic" in2="BackgroundImageFix" result="shape"/>
<feGaussianBlur stdDeviation="10.5" result="effect1_foregroundBlur_40000690_1228"/>
</filter>
<linearGradient id="paint0_linear_40000690_1228" x1="-9.5" y1="-7" x2="37.5" y2="29" gradientUnits="userSpaceOnUse">
<stop stop-color="#FB11FA"/>
<stop offset="0.495192" stop-color="#37016E"/>
<stop offset="1" stop-color="#8EDEFA"/>
</linearGradient>
<linearGradient id="paint1_linear_40000690_1228" x1="23.7644" y1="12.6938" x2="11.4613" y2="23.1325" gradientUnits="userSpaceOnUse">
<stop stop-color="#217BFE"/>
<stop offset="0.14" stop-color="#1485FC"/>
<stop offset="0.27" stop-color="#078EFB"/>
<stop offset="0.52" stop-color="#548FFD"/>
<stop offset="0.78" stop-color="#A190FF"/>
<stop offset="0.89" stop-color="#AF94FE"/>
<stop offset="1" stop-color="#BD99FE"/>
</linearGradient>
<linearGradient id="paint2_linear_40000690_1228" x1="7.44444" y1="6.05556" x2="30.6389" y2="29.25" gradientUnits="userSpaceOnUse">
<stop stop-color="#BE98FC"/>
<stop offset="0.495192" stop-color="#6B1EE8"/>
<stop offset="1" stop-color="#CDADFF"/>
</linearGradient>
<linearGradient id="paint3_linear_40000690_1228" x1="-1.63447e-07" y1="5.0625" x2="36" y2="29.8125" gradientUnits="userSpaceOnUse">
<stop stop-color="#FB11FA"/>
<stop offset="0.495192" stop-color="#37016E"/>
<stop offset="1" stop-color="#8EDEFA"/>
</linearGradient>
<clipPath id="clip0_40000690_1228">
<rect width="36" height="36" rx="18" fill="white"/>
</clipPath>
</defs>
</svg>
