<svg width="20" height="20" viewBox="0 0 20 20" fill="none" xmlns="http://www.w3.org/2000/svg">
<path d="M14.2237 12.413L18.2509 8.81239L18.4249 8.82559C18.6057 8.848 18.7468 8.92761 18.8481 9.06444C18.9494 9.20126 19 9.34849 19 9.50611C19 9.59733 18.9838 9.68374 18.9513 9.76536C18.9188 9.84697 18.8593 9.91859 18.7727 9.9802L15.5793 12.8487L16.5452 17.1995C16.5491 17.2219 16.551 17.2471 16.551 17.2751V17.3495C16.551 17.5391 16.4911 17.6951 16.3713 17.8176C16.2507 17.9392 16.1026 18 15.9271 18C15.8723 18 15.8147 17.9968 15.7544 17.9904C15.6941 17.984 15.638 17.958 15.5862 17.9124L15.4448 17.8224L14.2237 12.413ZM12.0113 5.33538L10.883 2.5797L10.9433 2.42727C10.9943 2.29125 11.0732 2.18603 11.1799 2.11162C11.2865 2.03721 11.4006 2 11.5219 2C11.6433 2 11.762 2.03721 11.8779 2.11162C11.9939 2.18603 12.0778 2.28885 12.1295 2.42007L13.3668 5.46741L12.0113 5.33538ZM4.76396 15.6644L8.41661 13.384L12.0693 15.6944L11.1126 11.3736L14.3304 8.49314L10.098 8.10307L8.41661 4.02235L6.73523 8.07306L2.5028 8.46313L5.72061 11.3736L4.76396 15.6644ZM3.49307 15.9524L4.43465 11.8045L1.33164 9.01043C1.22186 8.90561 1.13915 8.79119 1.08349 8.66717C1.02783 8.54315 1 8.41912 1 8.2951C1 8.06626 1.07692 7.85342 1.23075 7.65659C1.38459 7.46056 1.59602 7.35014 1.86504 7.32533L5.9618 6.95207L7.54461 3.04418C7.62269 2.84975 7.74367 2.70412 7.90756 2.60731C8.07144 2.51049 8.23919 2.46208 8.41081 2.46208C8.58243 2.46208 8.75172 2.51049 8.9187 2.60731C9.08568 2.70412 9.20898 2.84975 9.2886 3.04418L10.8726 6.95207L14.9682 7.32533C15.2372 7.34934 15.4486 7.45976 15.6025 7.65659C15.7571 7.85182 15.8344 8.06386 15.8344 8.2927C15.8344 8.42312 15.8062 8.54915 15.7497 8.67077C15.6941 8.79239 15.6114 8.90561 15.5016 9.01043L12.3997 11.8045L13.3483 15.9536C13.3622 15.9976 13.3691 16.0689 13.3691 16.1673C13.3691 16.4449 13.2764 16.6774 13.0908 16.8646C12.9038 17.0526 12.6861 17.1467 12.438 17.1467C12.3916 17.1467 12.2242 17.0942 11.9359 16.9894L8.41661 14.7966L4.89847 16.9894C4.81653 17.0342 4.73265 17.0714 4.64685 17.101C4.56104 17.1306 4.4791 17.1459 4.40102 17.1467C4.11963 17.1467 3.87766 17.0286 3.67513 16.7926C3.47259 16.5565 3.4119 16.2765 3.49307 15.9524Z" fill="#525252"/>
</svg>
