<svg width="20" height="20" viewBox="0 0 20 20" fill="none" xmlns="http://www.w3.org/2000/svg">
<g clip-path="url(#clip0_40000683_1192)">
<path d="M10.0013 18.332L8.33464 13.332H1.66797L3.33464 18.332H10.0013ZM10.0013 18.332H13.3346M10.0013 10.832V10.4154C10.0013 8.8437 10.0013 8.0587 9.51297 7.57036C9.02464 7.08203 8.23964 7.08203 6.66797 7.08203C5.0963 7.08203 4.3113 7.08203 3.82297 7.57036C3.33464 8.0587 3.33464 8.8437 3.33464 10.4154V10.832" stroke="#525252" stroke-width="1.5" stroke-linecap="round" stroke-linejoin="round"/>
<path d="M15.8333 10.8327C15.8333 11.2747 15.6577 11.6986 15.3452 12.0112C15.0326 12.3238 14.6087 12.4993 14.1667 12.4993C13.7246 12.4993 13.3007 12.3238 12.9882 12.0112C12.6756 11.6986 12.5 11.2747 12.5 10.8327C12.5 10.3907 12.6756 9.96673 12.9882 9.65417C13.3007 9.34161 13.7246 9.16601 14.1667 9.16601C14.6087 9.16601 15.0326 9.34161 15.3452 9.65417C15.6577 9.96673 15.8333 10.3907 15.8333 10.8327ZM8.33333 3.33268C8.33333 3.77471 8.15774 4.19863 7.84518 4.51119C7.53262 4.82375 7.10869 4.99935 6.66667 4.99935C6.22464 4.99935 5.80072 4.82375 5.48816 4.51119C5.17559 4.19863 5 3.77471 5 3.33268C5 2.89065 5.17559 2.46673 5.48816 2.15417C5.80072 1.84161 6.22464 1.66602 6.66667 1.66602C7.10869 1.66602 7.53262 1.84161 7.84518 2.15417C8.15774 2.46673 8.33333 2.89065 8.33333 3.33268Z" stroke="#525252" stroke-width="1.5"/>
<path d="M11.668 14.582H16.668C17.11 14.582 17.5339 14.7576 17.8465 15.0702C18.159 15.3827 18.3346 15.8067 18.3346 16.2487V16.6654C18.3346 17.1074 18.159 17.5313 17.8465 17.8439C17.5339 18.1564 17.11 18.332 16.668 18.332H15.8346" stroke="#525252" stroke-width="1.5" stroke-linecap="round"/>
</g>
<defs>
<clipPath id="clip0_40000683_1192">
<rect width="20" height="20" fill="white"/>
</clipPath>
</defs>
</svg>
