<svg width="12" height="12" viewBox="0 0 12 12" fill="none" xmlns="http://www.w3.org/2000/svg">
<g clip-path="url(#clip0_40000703_25458)">
<path d="M7.76785 5.6483C7.67411 5.74206 7.62145 5.86922 7.62145 6.0018C7.62145 6.13438 7.67411 6.26154 7.76785 6.3553L8.95585 7.5438C9.04961 7.63753 9.17676 7.69019 9.30935 7.69019C9.44193 7.69019 9.56908 7.63753 9.66285 7.5438L10.8513 6.3553C10.9451 6.26154 10.9977 6.13438 10.9977 6.0018C10.9977 5.86922 10.9451 5.74206 10.8513 5.6483L9.66285 4.4598C9.56908 4.36606 9.44193 4.31341 9.30935 4.31341C9.17676 4.31341 9.04961 4.36606 8.95585 4.4598L7.76785 5.6483Z" stroke="#525252" stroke-linecap="round" stroke-linejoin="round"/>
<path d="M1.14835 5.6483C1.05461 5.74206 1.00195 5.86922 1.00195 6.0018C1.00195 6.13438 1.05461 6.26154 1.14835 6.3553L2.33685 7.5438C2.43061 7.63753 2.55776 7.69019 2.69035 7.69019C2.82293 7.69019 2.95008 7.63753 3.04385 7.5438L4.23235 6.3553C4.32608 6.26154 4.37874 6.13438 4.37874 6.0018C4.37874 5.86922 4.32608 5.74206 4.23235 5.6483L3.04385 4.4598C2.95008 4.36606 2.82293 4.31341 2.69035 4.31341C2.55776 4.31341 2.43061 4.36606 2.33685 4.4598L1.14835 5.6483Z" stroke="#525252" stroke-linecap="round" stroke-linejoin="round"/>
<path d="M4.45785 8.9578C4.41136 9.00424 4.37448 9.05938 4.34932 9.12008C4.32415 9.18078 4.3112 9.24584 4.3112 9.31155C4.3112 9.37726 4.32415 9.44232 4.34932 9.50302C4.37448 9.56372 4.41136 9.61886 4.45785 9.6653L5.64635 10.8533C5.74011 10.947 5.86726 10.9997 5.99985 10.9997C6.13243 10.9997 6.25958 10.947 6.35335 10.8533L7.54185 9.6653C7.58833 9.61886 7.62521 9.56372 7.65038 9.50302C7.67554 9.44232 7.68849 9.37726 7.68849 9.31155C7.68849 9.24584 7.67554 9.18078 7.65038 9.12008C7.62521 9.05938 7.58833 9.00424 7.54185 8.9578L6.35335 7.7698C6.25958 7.67606 6.13243 7.62341 5.99985 7.62341C5.86726 7.62341 5.74011 7.67606 5.64635 7.7698L4.45785 8.9578Z" stroke="#525252" stroke-linecap="round" stroke-linejoin="round"/>
<path d="M4.45785 2.3388C4.36411 2.43256 4.31145 2.55972 4.31145 2.6923C4.31145 2.82488 4.36411 2.95204 4.45785 3.0458L5.64635 4.2338C5.74011 4.32753 5.86726 4.38019 5.99985 4.38019C6.13243 4.38019 6.25958 4.32753 6.35335 4.2338L7.54185 3.0458C7.63558 2.95204 7.68824 2.82488 7.68824 2.6923C7.68824 2.55972 7.63558 2.43256 7.54185 2.3388L6.35335 1.1503C6.25958 1.05656 6.13243 1.00391 5.99985 1.00391C5.86726 1.00391 5.74011 1.05656 5.64635 1.1503L4.45785 2.3388Z" stroke="#525252" stroke-linecap="round" stroke-linejoin="round"/>
</g>
<defs>
<clipPath id="clip0_40000703_25458">
<rect width="12" height="12" fill="white"/>
</clipPath>
</defs>
</svg>
