<svg width="20" height="20" viewBox="0 0 20 20" fill="none" xmlns="http://www.w3.org/2000/svg">
<path d="M5.83463 17.2177V15.8327C5.83463 15.3907 6.01023 14.9667 6.32279 14.6542C6.63535 14.3416 7.05927 14.166 7.5013 14.166H12.5013C12.9433 14.166 13.3673 14.3416 13.6798 14.6542C13.9924 14.9667 14.168 15.3907 14.168 15.8327V17.2177M18.3346 9.99935C18.3346 14.6017 14.6037 18.3327 10.0013 18.3327C5.39893 18.3327 1.66797 14.6017 1.66797 9.99935C1.66797 5.39698 5.39893 1.66602 10.0013 1.66602C14.6037 1.66602 18.3346 5.39698 18.3346 9.99935ZM12.5013 8.33268C12.5013 9.71339 11.382 10.8327 10.0013 10.8327C8.62059 10.8327 7.5013 9.71339 7.5013 8.33268C7.5013 6.95197 8.62059 5.83268 10.0013 5.83268C11.382 5.83268 12.5013 6.95197 12.5013 8.33268Z" stroke="black" stroke-linecap="round" stroke-linejoin="round"/>
</svg>
