<svg width="20" height="20" viewBox="0 0 20 20" fill="none" xmlns="http://www.w3.org/2000/svg">
<path d="M7.42188 4.83812L7.48902 3.95812C7.59473 2.5967 8.63188 1.4467 9.98473 1.25241C10.6676 1.15241 11.3662 1.07812 12.0747 1.07812C12.7833 1.07812 13.4833 1.15241 14.1662 1.25241C15.5176 1.4467 16.5547 2.5967 16.6619 3.95812C16.7676 5.30812 16.8662 6.70098 16.8662 8.12384C16.8662 9.54812 16.7662 10.941 16.6619 12.291C16.5547 13.6524 15.5176 14.8024 14.1662 14.9967C13.4087 15.1152 12.6429 15.1725 11.8762 15.1681" stroke="#525252" stroke-linecap="round" stroke-linejoin="round"/>
<path d="M9.30473 5.00241C10.6562 5.1967 11.6933 6.3467 11.8004 7.70813C11.9062 9.05813 12.0062 10.451 12.0062 11.8738C12.0062 13.2981 11.9062 14.691 11.8004 16.041C11.6933 17.4024 10.6576 18.5524 9.30473 18.7467C8.62188 18.8467 7.9233 18.921 7.21473 18.921C6.50616 18.921 5.80616 18.8467 5.1233 18.7467C3.77188 18.5524 2.73473 17.4024 2.62759 16.041C2.52188 14.691 2.42188 13.2981 2.42188 11.8738C2.42188 10.4496 2.52188 9.05955 2.62759 7.70813C2.73473 6.3467 3.77045 5.1967 5.1233 5.00241C5.80616 4.90241 6.50473 4.82812 7.21473 4.82812C7.9233 4.82812 8.62188 4.90241 9.30473 5.00241Z" stroke="#525252" stroke-linecap="round" stroke-linejoin="round"/>
</svg>
