<svg width="14" height="14" viewBox="0 0 14 14" fill="none" xmlns="http://www.w3.org/2000/svg">
<path d="M6.9987 4.08268V7.58268M2.33203 11.3743V2.62435C2.33203 2.23757 2.48568 1.86664 2.75917 1.59315C3.03266 1.31966 3.40359 1.16602 3.79036 1.16602H11.082C11.2367 1.16602 11.3851 1.22747 11.4945 1.33687C11.6039 1.44627 11.6654 1.59464 11.6654 1.74935V12.2493C11.6654 12.4041 11.6039 12.5524 11.4945 12.6618C11.3851 12.7712 11.2367 12.8327 11.082 12.8327H3.79036C3.40359 12.8327 3.03266 12.679 2.75917 12.4055C2.48568 12.1321 2.33203 11.7611 2.33203 11.3743ZM2.33203 11.3743C2.33203 10.9876 2.48568 10.6166 2.75917 10.3432C3.03266 10.0697 3.40359 9.91602 3.79036 9.91602H11.6654M5.2487 5.83268H8.7487" stroke="#505050" stroke-linecap="round" stroke-linejoin="round"/>
</svg>
